<svg version="1" xmlns="http://www.w3.org/2000/svg" width="981.333" height="981.333" viewBox="0 0 736.000000 736.000000"><path d="M149.9.5c-.3.2-2.1.7-4 1-8.6 1.2-17.5 4-27.5 8.6-6 2.8-14.8 8-15.2 9.1-.2.4-.8.8-1.4.8-1.2 0-12.3 8.9-17.8 14.2-3.9 3.7-12 13.2-13.5 15.9C60.7 66.8 58 73.4 54.9 88c-1.4 6.5-1.7 11.9-1.5 23 .2 8 .6 15.8 1 17.5.4 1.6.9 3.9 1 5 1 5.1 3.7 15.8 4.3 16.9.4.6.8 1.3.8 1.6.8 6.2 14.9 37.7 22.6 50.6 7.4 12.3 14.3 22.9 15.1 23.2.4.2.8 1 .8 1.8s.5 1.4 1 1.4c.6 0 1 .7 1 1.5s.4 1.5.9 1.5 1.1.8 1.5 1.7c.3 1 4.4 7.2 9 13.8 42.5 60.2 58.9 89 69.1 121.5 5 16.1 11.4 33.2 16.7 45 7.4 16.6 21.7 42.2 27.9 50.1 1.6 2 2.9 4 2.9 4.4 0 .4 1 1.9 2.3 3.4 1.2 1.5 3.1 4 4.2 5.5 1.1 1.6 2.5 3.4 3.2 4 .6.7 3.5 4.2 6.4 7.7 5.7 7 19.5 20.9 27.6 27.7l5.1 4.4-3.2 3.3c-8.2 8.6-19.1 21.9-25.7 31.5-2.4 3.6-4.6 6.7-4.9 7-1.3 1.2-6 9.1-6 9.9 0 .5-.3 1.1-.8 1.3-3.5 1.5-27.4 50.8-24.6 50.8.4 0 .1.7-.6 1.5s-1 1.5-.6 1.5c.3 0 .2 1-.3 2.3-2.5 6.5-3.9 22.7-2.7 30.5 2.1 13.3 11.5 17 23.6 9.2 8.1-5.3 23.9-22.1 31.5-33.7.6-.9 1.8-2.5 2.7-3.7 7.4-9 8.8-10.7 8.8-10.3 0 .3-.7 3.4-1.5 6.9-.8 3.5-1.6 7.3-1.8 8.4-.8 4.2-2.9 14-3.5 15.4-.3.8-.7 2.4-.9 3.5-.2 1.1-2 9.2-3.9 18-4 17.8-4.4 19.9-4.8 25.8-.8 12.4 6.6 24.6 17 28.2 5.4 1.8 16.8 2.2 23.4.7 20-4.5 41.5-18.3 50.6-32.5 2.5-3.8 6.3-12.7 7-16.2.2-1.1 1.7-6.5 3.2-12l2.9-10 6.1-.2c3.4-.1 6.2 0 6.2.2 0 .4.8 3.3 4.6 17 .9 3.3 1.7 6.4 1.9 7 1.1 4.9 2.3 8.1 5.6 14.8 4.7 9.5 7.6 13.5 15.2 20.9 5.6 5.4 16.6 12.8 19.1 12.8.6 0 1.6.4 2.1.8 3.5 3 23.2 5.1 29.7 3.1 1.8-.6 4.2-1.2 5.3-1.4 4.6-.9 13.4-6.1 15.3-9.1 4.3-6.5 5.5-17.7 3.1-28.2-1.4-6.3-5.8-26.6-6.9-32.2-.5-2.5-1.9-8.8-3-14-1.2-5.2-2.3-10.3-2.5-11.4-.3-1-.3-1.7-.1-1.5.2.2 3.2 4 6.7 8.4 19.2 24.3 34.9 32.8 43 23.2 5.1-6.1 5.5-22.4.8-39.7-1.1-4.1-2.1-8.2-2.4-9-.5-1.9-2.9-8.6-4.6-12.5-.7-1.7-1.3-3.2-1.4-3.5-.5-1.4-6.9-14-8.8-17.5-1.3-2.2-3.5-6-4.9-8.5-2.5-4.4-7.3-11.9-14.7-22.9-4.3-6.4-21.1-27.5-22.3-27.9-1.7-.7-.7-3 1.9-4.8 3.8-2.4 9.2-7.4 19.8-17.9 11-11.1 15.2-15.9 22.4-25.5 3.1-4.1 5.8-7.7 6.1-8 1.5-1.5 8.4-12.6 8.2-13.3-.1-.4.3-.7.8-.7.6 0 1-.6 1-1.4 0-.8.3-1.6.8-1.8 1.7-.7 16.1-27.4 21.6-40.1 6.1-14.1 10.2-25.2 14.7-39.7 2.2-6.9 4.2-13.2 4.6-14 .3-.8.7-1.7.8-2 .1-.3.7-1.8 1.3-3.3.7-1.6 1.2-3.1 1.2-3.4 0-1.4 13.3-27.8 14.1-28.1.5-.2.9-1.2.9-2.2 0-1 .4-2 .8-2.2.7-.2 3.6-5.1 9.9-16.2.7-1.1 1.7-2.8 2.3-3.6.5-.8 5.2-7.8 10.4-15.5 5.1-7.7 11.8-17.6 14.9-22 7.4-10.6 31.1-45.6 31.7-47 .3-.5 1.7-2.8 3.1-5 4.7-7.2 15.9-29.2 20-39.2 3.8-9.2 9.4-26 10.3-30.7.2-1.2.7-3.2 1-4.6.3-1.4.9-4.3 1.2-6.5.9-5.6 1.5-32.5.7-33.8-.3-.5-.8-2.8-1-5.1-.1-2.3-.7-5.2-1.2-6.6-.5-1.4-1.4-4.5-2.2-7-.7-2.5-1.6-4.9-2.1-5.4-.4-.6-.8-1.8-.8-2.8 0-1-.4-1.8-1-1.8-.5 0-1-.7-1-1.5 0-1.9-6.9-13.3-12.1-20.1-6.7-8.7-18.5-19.4-29.4-26.5-13.3-8.8-26.8-14.4-39.8-16.5-8-1.3-25.5-1.2-32.2.1-11 2.3-11.6 2.5-14.6 4.1-1.6.8-3.2 1.5-3.6 1.5-1.9.3-5.8 2.1-8.4 4-1.6 1.1-2.9 1.7-2.9 1.4 0-.4-1.4.5-3.1 1.9-1.7 1.4-3.4 2.6-3.8 2.6-.4 0-2.3 1.4-4.2 3.1-1.9 1.7-4.5 4.1-5.9 5.3-2.4 2.1-8.1 8.3-12.5 13.7-1.1 1.3-3.1 4.2-4.5 6.4-1.3 2.2-2.7 4.2-3 4.5-.8.6-8.8 16.9-10.7 21.5-5.1 12.8-7.5 19.2-7.7 20.3-.1.7-.8 1.8-1.4 2.4-.7.7-1.2 1.8-1.2 2.6 0 2.2-9.4 22.3-14.5 30.7-3.1 5.3-10.3 15.1-14.3 19.7-2.5 2.7-3.7 2.9-11.2 1.3-2.4-.5-6.2-1-14-2-19.2-2.4-78.2-2.5-98.5-.1-1.6.2-5.7.7-9 1-3.3.4-8 1.2-10.5 1.7-4.4 1-4.5 1-7.8-2.8-5-5.7-12.7-17.3-17.6-26.6-4.9-9.1-17.4-38-17.3-39.7 0-.3-.6-1.6-1.3-3-.8-1.4-1.4-2.7-1.5-3-.1-1.6-6.1-14.8-7.4-16.4-.9-1-1.4-1.9-1.1-2.1.3-.2-2.4-4.6-5.8-9.9-6.5-9.8-16.5-20.8-23.7-26.1-2.2-1.7-4.2-3.2-4.5-3.5-.6-.6-4.1-2.6-10.5-6.1-5.6-3-14.5-6.2-22-8C174.4.7 150.8-.4 149.9.5z"/></svg>